<svg width="21" height="27" viewBox="0 0 21 27" fill="none" xmlns="http://www.w3.org/2000/svg">
<path fill-rule="evenodd" clip-rule="evenodd" d="M7.085 0.0890914C6.75934 0.242293 6.48318 0.550674 5.99198 1.30955C5.24544 2.46291 5.09328 2.5755 3.8266 2.91142C2.90041 3.15702 2.57829 3.29175 2.33451 3.53558C1.94825 3.92183 1.91494 4.13297 1.96142 5.90039C1.98854 6.92975 1.97787 6.9538 0.909887 8.27462C0.439976 8.85577 0.300049 9.15635 0.300049 9.58482C0.300049 10.0381 0.473656 10.3674 1.12951 11.1581C1.96522 12.1655 2.04253 12.4012 1.95762 13.6828C1.89916 14.5643 1.92873 14.9107 2.09359 15.2761C2.29989 15.7332 2.64654 15.9282 3.79344 16.2323C4.23409 16.3491 4.71655 16.5038 4.86554 16.576C5.21296 16.7444 5.51905 17.0877 5.97058 17.8155C6.42014 18.5401 6.6685 18.8247 7.01551 19.0137C7.2635 19.1486 7.32139 19.1593 7.68474 19.1367C8.00479 19.1167 8.21962 19.0583 8.78521 18.837C10.2132 18.2785 10.3716 18.2785 11.8045 18.8361C12.9794 19.2935 13.4904 19.2548 14.0173 18.6686C14.1459 18.5257 14.4183 18.1408 14.6228 17.8131C15.0859 17.0712 15.3766 16.7446 15.7242 16.5756C15.8731 16.5032 16.3544 16.3499 16.7936 16.235C18.0479 15.9068 18.4313 15.6464 18.5963 15.0102C18.6627 14.7541 18.6713 14.5107 18.6439 13.6568C18.6201 12.916 18.6285 12.5481 18.6729 12.3814C18.7524 12.0833 18.9624 11.7643 19.5299 11.08C20.1063 10.3848 20.3 10.0056 20.3 9.57243C20.3 9.12881 20.1483 8.84651 19.43 7.95349C18.6032 6.92563 18.6128 6.95624 18.6335 5.40794L18.6499 4.18253L18.5042 3.88586C18.261 3.39065 17.927 3.20434 16.7496 2.9071C15.9788 2.71252 15.5869 2.54344 15.3257 2.29289C15.2153 2.18696 14.8837 1.73527 14.5888 1.28909C14.2939 0.84297 13.9743 0.411736 13.8785 0.33084C13.3992 -0.0742611 12.9136 -0.102215 12.0627 0.226312C10.9061 0.672902 10.7025 0.730945 10.2948 0.73006C9.88469 0.729227 9.77027 0.696796 8.60692 0.252079C7.90109 -0.017728 7.42134 -0.0691075 7.085 0.0890914ZM9.52483 3.688C6.44513 4.12241 4.21874 6.78987 4.3761 9.85666C4.45492 11.3929 5.0255 12.6815 6.10458 13.7606C7.32186 14.9778 8.81775 15.5596 10.5527 15.4904C11.4453 15.4549 12.08 15.2955 12.8783 14.9067C15.235 13.7587 16.5459 11.2688 16.1535 8.6854C15.7807 6.23016 13.9328 4.28456 11.4778 3.76218C11.0202 3.66478 9.97178 3.62501 9.52483 3.688ZM9.61744 6.40794C9.26111 7.13084 8.96907 7.72595 8.9685 7.73037C8.96788 7.7348 8.31296 7.83485 7.51306 7.95276C6.71317 8.07061 6.05065 8.17514 6.04076 8.18503C6.03087 8.19487 6.49208 8.66702 7.06564 9.23417C7.63919 9.80133 8.10848 10.3063 8.10848 10.3563C8.10848 10.4063 8.00239 11.0613 7.87272 11.8119C7.74305 12.5624 7.64752 13.1872 7.66054 13.2001C7.6735 13.2131 8.27303 12.9142 8.99281 12.5358L10.3015 11.8479L10.5454 11.9783C11.8683 12.6857 12.9094 13.2199 12.9282 13.2011C12.9408 13.1885 12.8453 12.5663 12.7161 11.8185C12.5869 11.0706 12.4812 10.4148 12.4812 10.3611C12.4812 10.3032 12.9054 9.84536 13.5251 9.23438C14.0993 8.66832 14.5589 8.19503 14.5465 8.18258C14.534 8.17014 13.871 8.0652 13.0731 7.94937C12.2751 7.8335 11.6213 7.73506 11.62 7.73053C11.5948 7.63802 10.3169 5.09352 10.2957 5.09352C10.279 5.09352 9.97376 5.68498 9.61744 6.40794ZM2.77485 20.2809C1.94758 22.1348 1.2355 23.7274 1.1925 23.8201C1.1495 23.9128 1.12524 23.9996 1.13862 24.0129C1.152 24.0263 2.04018 23.8969 3.11228 23.7253C4.72915 23.4665 5.07064 23.4254 5.11447 23.4841C5.29448 23.7254 7.7621 26.5927 7.78969 26.5927C7.82821 26.5927 9.41723 19.1908 9.38552 19.1591C9.37418 19.1477 9.17006 19.2137 8.93191 19.3057C8.01733 19.6593 7.65617 19.7194 7.18042 19.5976C7.00494 19.5526 6.77209 19.4595 6.66298 19.3905C6.37032 19.2059 5.97501 18.7498 5.63217 18.2016C5.15778 17.4429 4.90916 17.1414 4.65721 17.0194C4.53316 16.9594 4.39734 16.9103 4.35533 16.9103C4.30458 16.9103 3.77579 18.0379 2.77485 20.2809ZM15.933 17.0183C15.6664 17.1503 15.4672 17.3894 15.0037 18.1336C14.5391 18.8796 14.0243 19.4066 13.6264 19.5435C13.1459 19.7088 12.6733 19.6713 11.9606 19.4115C11.1242 19.1065 11.1588 19.1145 11.1887 19.2316C11.2027 19.2862 11.5629 20.9648 11.9892 22.9618C12.4155 24.9588 12.7797 26.5927 12.7987 26.5927C12.827 26.5927 15.4032 23.6082 15.5053 23.4572C15.5298 23.421 18.6986 23.8897 19.3212 24.0216C19.4503 24.049 19.4681 24.0397 19.4453 23.9567C19.4306 23.9034 18.7194 22.2961 17.8648 20.385C16.7852 17.9709 16.2866 16.9103 16.231 16.9103C16.1871 16.9103 16.053 16.9589 15.933 17.0183Z" fill="#9E86FF"/>
</svg>
