<svg width="21" height="26" viewBox="0 0 21 26" fill="none" xmlns="http://www.w3.org/2000/svg">
<path fill-rule="evenodd" clip-rule="evenodd" d="M9.84102 0.03219C9.61737 0.0886826 9.293 0.24978 9.08665 0.406885C8.89682 0.551419 8.56082 0.671848 8.34747 0.671848C8.2577 0.671848 8.03311 0.636355 7.8484 0.592926C6.97114 0.386772 6.21366 0.720305 5.63129 1.56917C5.42075 1.87609 5.13059 2.03748 4.67594 2.10073C3.78902 2.22401 3.15961 2.78416 2.94715 3.63919C2.83579 4.08733 2.65759 4.37724 2.38819 4.54854C2.26628 4.62603 2.06501 4.75292 1.94088 4.83056C1.65497 5.00931 1.352 5.40855 1.21974 5.78083C1.12889 6.03648 1.12065 6.13832 1.14801 6.66627C1.18439 7.36888 1.1346 7.56636 0.829811 7.92779C0.553756 8.25521 0.392264 8.58934 0.327589 8.96704C0.25261 9.40469 0.327194 9.78229 0.594918 10.3202C0.842332 10.8172 0.860818 11.0545 0.69346 11.5836C0.422828 12.4394 0.652988 13.1932 1.37931 13.8302C1.75627 14.1608 1.84791 14.3597 1.91209 14.987C2.00925 15.9369 2.4469 16.4733 3.38938 16.7975C3.68609 16.8996 3.98797 17.1057 3.98797 17.2062C3.98797 17.2418 3.52001 18.3997 2.94809 19.7794C1.96863 22.142 1.90938 22.3027 1.92895 22.5432C1.95528 22.8665 2.14284 23.1249 2.44971 23.2607C2.74464 23.3911 2.84126 23.3742 4.20211 22.9527C5.06138 22.6866 5.34399 22.6171 5.39492 22.6593C5.43164 22.6898 5.70937 23.1843 6.01214 23.7583C6.31492 24.3323 6.62109 24.8657 6.69252 24.9436C7.03207 25.3138 7.59566 25.3117 7.94576 24.939C8.03937 24.8393 8.42703 23.9627 9.16321 22.1856C9.75727 20.7516 10.2639 19.5715 10.2891 19.5631C10.3143 19.5547 10.3468 19.5765 10.3613 19.6116C12.0025 23.5819 12.5315 24.813 12.6503 24.9395C12.9999 25.3117 13.5637 25.3136 13.9031 24.9436C13.9745 24.8657 14.2807 24.3323 14.5834 23.7583C14.8862 23.1843 15.1635 22.6902 15.1996 22.6601C15.2493 22.619 15.5639 22.6967 16.4815 22.9767C17.1503 23.1807 17.7573 23.3473 17.8304 23.3467C18.2409 23.3433 18.6324 22.967 18.6662 22.5432C18.6854 22.3031 18.6245 22.1381 17.6471 19.7784C17.0754 18.3982 16.6076 17.2402 16.6076 17.2052C16.6076 17.1056 16.9107 16.8992 17.2062 16.7975C18.1457 16.4743 18.5868 15.9318 18.6842 14.9798C18.7108 14.7206 18.7651 14.4287 18.8051 14.3313C18.845 14.2339 19.055 13.984 19.2716 13.7761C19.7806 13.2874 19.9741 12.9075 20.0011 12.3437C20.0153 12.0475 19.9944 11.8833 19.907 11.6043C19.7361 11.0585 19.7557 10.7842 20 10.3064C20.4467 9.43298 20.3977 8.76666 19.8322 8.02436C19.4469 7.51864 19.4102 7.38895 19.4476 6.66627C19.4749 6.13832 19.4667 6.03648 19.3758 5.78083C19.2444 5.41077 18.9443 5.01404 18.6585 4.83219C18.5351 4.75366 18.3335 4.62658 18.2107 4.54982C17.9392 4.38015 17.762 4.093 17.6428 3.62958C17.4216 2.76976 16.8066 2.22401 15.9196 2.10073C15.465 2.03748 15.1748 1.87609 14.9643 1.56917C14.3819 0.720305 13.6244 0.386772 12.7472 0.592926C12.5625 0.636355 12.3379 0.671848 12.2481 0.671848C12.0295 0.671848 11.6973 0.550335 11.4959 0.396681C11.1797 0.155577 10.8112 0.0225281 10.406 0.00330284C10.1974 -0.00655626 9.94316 0.00640845 9.84102 0.03219ZM9.88327 0.798685C9.77728 0.83753 9.622 0.921431 9.5382 0.985121C9.20412 1.23899 8.72897 1.40936 8.35062 1.41093C8.24217 1.41138 7.97031 1.37377 7.74651 1.32738C7.40139 1.25585 7.30408 1.25245 7.10567 1.305C6.76636 1.39482 6.53335 1.56779 6.31137 1.89462C5.9486 2.42884 5.51668 2.70711 4.87707 2.81881C4.41394 2.89966 4.29494 2.94417 4.09672 3.11099C3.8495 3.31901 3.75392 3.48613 3.64271 3.90494C3.46594 4.57043 3.13265 5.01152 2.60139 5.28314C2.3101 5.43206 2.07363 5.66893 1.9602 5.92536C1.88542 6.09445 1.87271 6.24268 1.88192 6.83792C1.89218 7.50109 1.88478 7.56666 1.77086 7.8191C1.70377 7.96787 1.55603 8.2036 1.4426 8.34286C1.11513 8.74487 1.05736 8.88487 1.05844 9.27391C1.05928 9.58215 1.08137 9.66107 1.26529 10.0133C1.57881 10.6138 1.6214 11.1513 1.40356 11.7572C1.2997 12.0461 1.30625 12.4791 1.41825 12.7257C1.46784 12.8348 1.60483 13.0123 1.7227 13.1201C2.40066 13.7401 2.56595 14.0495 2.63072 14.8196C2.68608 15.4776 3.00404 15.921 3.51858 16.0577C4.10076 16.2124 4.57592 16.6175 4.84177 17.1858C5.05069 17.6325 5.18078 17.7895 5.47443 17.9493C5.70474 18.0746 5.78085 18.0888 6.27568 18.0988C7.03611 18.114 7.30955 18.2209 7.85634 18.7164C8.2577 19.0801 8.42565 19.1576 8.81218 19.1576C9.03302 19.1576 9.19288 19.119 9.46692 18.9993C9.79143 18.8575 9.87868 18.8409 10.2978 18.8409C10.7169 18.8409 10.8042 18.8575 11.1287 18.9993C11.4027 19.119 11.5626 19.1576 11.7834 19.1576C12.1699 19.1576 12.3379 19.0801 12.7392 18.7164C13.286 18.2209 13.5595 18.114 14.3199 18.0988C14.8147 18.0888 14.8908 18.0746 15.1212 17.9493C15.4148 17.7895 15.5449 17.6325 15.7538 17.1858C16.0233 16.6098 16.4035 16.2834 17.0735 16.0529C17.6692 15.8479 17.8989 15.5087 17.9812 14.7124C18.0541 14.0073 18.219 13.7133 18.8709 13.1263C18.9868 13.0219 19.1235 12.8445 19.1745 12.7319C19.2894 12.479 19.2971 12.0494 19.192 11.7572C18.9742 11.1513 19.0168 10.6138 19.3303 10.0133C19.5142 9.66107 19.5363 9.58215 19.5371 9.27391C19.5382 8.88487 19.4805 8.74487 19.153 8.34286C19.0396 8.2036 18.8918 7.96787 18.8247 7.8191C18.7108 7.56666 18.7034 7.50109 18.7137 6.83792C18.7229 6.24268 18.7102 6.09445 18.6354 5.92536C18.522 5.66893 18.2855 5.43206 17.9942 5.28314C17.4618 5.01093 17.1297 4.57053 16.9517 3.9007C16.7584 3.17271 16.5115 2.97015 15.5971 2.78904C15.0346 2.67768 14.6277 2.40044 14.2842 1.89462C14.0622 1.56779 13.8292 1.39482 13.4899 1.305C13.2915 1.25245 13.1942 1.25585 12.8491 1.32738C12.6253 1.37377 12.3534 1.41138 12.245 1.41093C11.8671 1.40936 11.3915 1.23899 11.0585 0.985909C10.7269 0.733862 10.2622 0.659869 9.88327 0.798685ZM9.1147 2.66501C7.51087 2.95181 6.21248 3.62578 5.07252 4.76337C4.06142 5.7723 3.36394 7.05768 3.07532 8.44372C2.9509 9.04113 2.95494 9.23974 3.0938 9.35219C3.2413 9.47163 3.4683 9.47316 3.58592 9.35554C3.64394 9.29752 3.70738 9.09679 3.76117 8.80097C4.20458 6.36158 5.91336 4.40095 8.2647 3.63372C9.51345 3.22619 11.0844 3.22767 12.3436 3.63746C14.0438 4.19076 15.447 5.40377 16.2592 7.02253C16.4779 7.4584 16.7347 8.25216 16.8344 8.80097C16.9255 9.30196 17.0134 9.44644 17.2271 9.44644C17.4046 9.44644 17.5411 9.36259 17.5951 9.22032C17.6535 9.06696 17.5001 8.24176 17.2988 7.62581C17.1146 7.06187 16.7228 6.2832 16.3426 5.72522C15.9749 5.18559 15.1481 4.34712 14.6012 3.95926C13.8004 3.39133 12.7649 2.93564 11.7767 2.71623C11.2743 2.60472 9.6289 2.57308 9.1147 2.66501ZM10.083 4.66463C9.91082 4.71812 9.76797 4.84284 9.67667 5.01936C9.63886 5.09247 9.39544 5.73582 9.13565 6.44903C8.87591 7.16224 8.64575 7.76404 8.62411 7.78637C8.60252 7.80875 7.89567 7.85336 7.05336 7.88555C5.63725 7.93963 5.5117 7.95165 5.38649 8.04512C5.17037 8.20646 5.06045 8.38777 5.05512 8.59151C5.04521 8.9736 5.11309 9.04769 6.38511 10.0429C7.04587 10.5599 7.58654 10.9977 7.58654 11.0158C7.58654 11.0339 7.40908 11.6697 7.19218 12.4288C6.97528 13.1879 6.79791 13.8978 6.79801 14.0062C6.79841 14.4373 7.13638 14.7136 7.62144 14.6794C7.68134 14.6752 8.29719 14.2946 8.99003 13.8337C9.68288 13.3728 10.2714 12.9957 10.2978 12.9957C10.3242 12.9957 10.9127 13.3728 11.6056 13.8337C12.2984 14.2946 12.9142 14.6752 12.9741 14.6794C13.4592 14.7136 13.7972 14.4373 13.7976 14.0062C13.7977 13.8978 13.6203 13.1879 13.4034 12.4288C13.1865 11.6697 13.009 11.0342 13.009 11.0166C13.009 10.999 13.5491 10.5626 14.2092 10.0469C15.4822 9.05222 15.5505 8.97764 15.5405 8.59151C15.5351 8.38757 15.4252 8.20651 15.2084 8.04458C15.0842 7.95175 14.9729 7.93958 13.9298 7.90458C13.3014 7.88348 12.5994 7.8502 12.3699 7.83063L11.9526 7.79504L11.4533 6.43015C11.1787 5.67948 10.9169 5.00876 10.8717 4.93965C10.7108 4.69421 10.3703 4.57541 10.083 4.66463ZM9.77659 6.84122C9.50882 7.57735 9.24839 8.23219 9.19786 8.29643C9.01054 8.53457 8.91757 8.55049 7.36008 8.61064C6.54927 8.64199 5.87939 8.67373 5.87145 8.68118C5.86352 8.68862 6.37269 9.09758 7.00293 9.58994C7.63323 10.0824 8.18859 10.5454 8.2371 10.619C8.2856 10.6926 8.32543 10.8415 8.32563 10.95C8.32578 11.0584 8.15122 11.7572 7.93772 12.5028C7.72418 13.2484 7.55563 13.8654 7.56318 13.8741C7.57067 13.8827 8.13653 13.5167 8.82065 13.0607C9.99172 12.2801 10.0781 12.2316 10.2978 12.2316C10.5175 12.2316 10.6039 12.2801 11.7749 13.0607C12.4591 13.5167 13.0249 13.8827 13.0324 13.8741C13.04 13.8654 12.8714 13.2484 12.6579 12.5028C12.4444 11.7572 12.2697 11.0618 12.2697 10.9575C12.2696 10.8533 12.3047 10.7091 12.3475 10.6371C12.3903 10.5652 12.9458 10.0986 13.5818 9.60034C14.2178 9.10206 14.7318 8.68833 14.7239 8.68098C14.7161 8.67364 14.0463 8.64199 13.2355 8.61064C11.678 8.55049 11.585 8.53457 11.3977 8.29643C11.3472 8.23219 11.0868 7.57735 10.819 6.84122C10.5512 6.1051 10.3167 5.5028 10.2978 5.5028C10.2789 5.5028 10.0444 6.1051 9.77659 6.84122ZM3.11707 10.5502C2.9997 10.6511 2.98161 10.701 2.99023 10.8992C3.00172 11.1634 3.15217 11.834 3.30572 12.3056C3.87292 14.0474 5.30771 15.6968 6.99238 16.5436C8.73168 17.4179 10.7625 17.5614 12.6202 16.9412C13.7729 16.5564 14.6117 16.0331 15.502 15.1432C16.5516 14.0942 17.1522 13.0134 17.4947 11.5579C17.55 11.3228 17.5998 11.0265 17.6054 10.8992C17.614 10.701 17.5959 10.6511 17.4785 10.5502C17.3075 10.4031 17.19 10.4013 17.0318 10.5433C16.9324 10.6324 16.8935 10.7418 16.8335 11.1007C16.6861 11.9817 16.2904 12.9458 15.7524 13.7351C15.6138 13.9385 15.2671 14.3391 14.9818 14.6253C14.0042 15.6065 12.9374 16.1785 11.524 16.4795C10.9493 16.6019 9.64625 16.6019 9.07157 16.4795C8.12352 16.2776 7.2678 15.917 6.51062 15.4002C6.026 15.0694 5.16875 14.2127 4.83906 13.7296C4.30184 12.9423 3.91033 11.9867 3.7621 11.1007C3.70206 10.7418 3.66317 10.6324 3.56379 10.5433C3.4056 10.4013 3.28808 10.4031 3.11707 10.5502ZM3.57113 20.2042C3.08557 21.3763 2.67869 22.3853 2.667 22.4465C2.65414 22.5139 2.6739 22.5686 2.71719 22.5852C2.75647 22.6003 3.34127 22.4436 4.01681 22.2371C5.34138 21.8321 5.46418 21.8171 5.79219 22.0198C5.99272 22.1438 5.99928 22.1542 6.65594 23.3975C6.95911 23.9715 7.23881 24.4533 7.27746 24.4681C7.31611 24.4829 7.37576 24.4643 7.40997 24.4267C7.45813 24.3738 9.31188 19.9489 9.31188 19.8869C9.31188 19.8789 9.08448 19.8724 8.80661 19.8724C8.36443 19.8724 8.26692 19.8563 8.02596 19.7433C7.87448 19.6722 7.60389 19.4812 7.42466 19.3188C6.95581 18.8939 6.82991 18.8448 6.18162 18.8337C5.75877 18.8265 5.57696 18.8006 5.35582 18.7164C5.06823 18.6067 4.59623 18.2726 4.54674 18.1437C4.53185 18.1049 4.50489 18.0731 4.48679 18.0731C4.46875 18.0731 4.05669 19.0321 3.57113 20.2042ZM15.8712 18.3096C15.5029 18.6819 14.8792 18.898 14.3576 18.8337C13.9332 18.7815 13.6318 18.9014 13.2017 19.2935C12.6806 19.7685 12.427 19.8724 11.789 19.8724C11.5111 19.8724 11.2837 19.8789 11.2837 19.8869C11.2837 19.9489 13.1375 24.3738 13.1856 24.4267C13.2198 24.4643 13.2797 24.4828 13.3186 24.4679C13.3575 24.453 13.642 23.9584 13.9509 23.3688C14.2598 22.7792 14.5845 22.2237 14.6724 22.1342C14.8516 21.9518 15.1647 21.8462 15.397 21.8897C15.4817 21.9056 16.0579 22.0751 16.6774 22.2663C17.2969 22.4574 17.8366 22.6013 17.8768 22.5859C17.9216 22.5686 17.9416 22.5148 17.9286 22.4465C17.8985 22.2893 16.1472 18.0715 16.1158 18.0808C16.1016 18.085 15.9916 18.188 15.8712 18.3096Z" fill="white"/>
</svg>
