<svg width="21" height="17" viewBox="0 0 21 17" fill="none" xmlns="http://www.w3.org/2000/svg">
<path fill-rule="evenodd" clip-rule="evenodd" d="M3.1247 0.97321C2.58925 1.05744 2.23792 1.21842 2.05634 1.4628C1.77602 1.84003 1.80667 2.27536 2.16498 3.00682C2.86156 4.42878 4.62705 6.09548 7.03651 7.60579C7.35398 7.80482 7.68825 8.00715 7.77931 8.05548L7.94491 8.14333L8.21244 7.95756C8.35961 7.85539 8.52415 7.73609 8.57809 7.69238C8.6936 7.59885 8.75555 7.65044 8.00922 7.21864C6.00637 6.05978 4.08493 4.5435 3.34421 3.53733C2.792 2.78719 2.75866 2.16025 3.25562 1.87157C3.78919 1.56163 4.82302 1.69074 6.41125 2.26578C8.11381 2.88217 10.3417 4.07235 12.0337 5.26927L12.4094 5.53511L12.8097 5.36504C13.0299 5.27147 13.2185 5.18649 13.2288 5.17613C13.2391 5.16581 13.0223 4.98891 12.747 4.78301C10.0442 2.762 6.67945 1.25188 4.29341 0.98906C3.92823 0.948807 3.33114 0.940725 3.1247 0.97321ZM14.5023 2.14369V2.5164H14.1296H13.7569V2.79103V3.06567H14.1296H14.5023V3.43838V3.81109H14.7965H15.0908V3.43838V3.06567H15.4635H15.8362V2.79103V2.5164H15.4635H15.0908V2.14369V1.77098H14.7965H14.5023V2.14369ZM3.64269 2.32263C3.57156 2.34464 3.50342 2.38858 3.49125 2.4202C3.32526 2.85279 4.56506 4.17784 6.30258 5.42487C7.20796 6.07468 9.0875 7.22437 9.24447 7.22437C9.27774 7.22437 9.393 7.16552 9.50058 7.09357C9.79769 6.89497 10.6519 6.40609 11.2584 6.08755L11.8005 5.80284L11.4153 5.5452C9.16243 4.03833 6.74999 2.87068 4.98827 2.43433C4.47581 2.30741 3.85773 2.25609 3.64269 2.32263ZM1.15351 2.99246C0.530296 4.05454 0.517389 4.08216 0.50197 4.38758C0.481294 4.79718 0.623083 5.23788 0.940046 5.74929L1.03491 5.90237L1.20185 5.61197C1.29365 5.45225 1.39295 5.28269 1.42253 5.23514L1.47628 5.14871L1.69685 5.27437C1.8182 5.3435 1.92515 5.41953 1.93457 5.44339C1.94402 5.4672 1.82911 5.6964 1.67924 5.95271C1.43415 6.37195 1.41218 6.42645 1.46047 6.49542C1.59818 6.69198 2.29594 7.44321 2.57202 7.69207L2.87965 7.96941L3.12615 7.53874L3.37265 7.10808L3.59197 7.23096C3.71261 7.29856 3.82552 7.36631 3.8429 7.38154C3.86032 7.3968 3.75094 7.61925 3.59989 7.87587L3.32526 8.34251L3.45057 8.45409C3.75361 8.72397 4.95912 9.60331 4.98478 9.57317C4.99153 9.56521 5.09797 9.38219 5.22135 9.16641C5.3447 8.95062 5.45922 8.75999 5.47582 8.74277C5.49241 8.72554 5.61498 8.77639 5.74821 8.85576L5.99044 9.00006L5.9066 9.14208C5.59034 9.67765 5.47264 9.89924 5.49343 9.92003C5.50658 9.93318 5.56602 9.97351 5.62549 10.0097L5.7337 10.0754L6.24373 9.59542C6.52424 9.33142 6.895 8.99692 7.06762 8.85207C7.24025 8.70722 7.39545 8.57587 7.41252 8.56014C7.42963 8.54437 7.27073 8.42926 7.05942 8.3043C6.20716 7.80027 5.08941 7.01208 4.35568 6.39773C2.85203 5.13878 1.89404 3.97419 1.47401 2.89461L1.36914 2.62504L1.15351 2.99246ZM16.3855 4.89499C13.1079 5.38858 8.35282 8.03143 6.03191 10.6494C4.74475 12.1013 4.3514 13.26 4.95524 13.821C5.24725 14.0923 5.71083 14.215 6.43989 14.2138C10.0492 14.208 16.4236 10.623 18.5318 7.41308C19.4231 6.05593 19.312 5.19151 18.21 4.90966C17.8366 4.81417 16.9684 4.80718 16.3855 4.89499ZM16.3266 5.63457C14.2344 6.02254 10.877 7.68712 8.31723 9.60562C7.43979 10.2632 6.53817 11.1053 6.15463 11.6255C6.06428 11.7481 5.93261 11.9599 5.86203 12.0963C5.74814 12.3164 5.7337 12.3799 5.7337 12.6612C5.7337 12.9457 5.74461 12.9925 5.84053 13.1182C6.25059 13.6558 7.50072 13.5598 9.38069 12.8463C10.9038 12.2683 12.6872 11.3364 14.2623 10.2955C16.5548 8.78031 17.9745 7.36212 18.0976 6.46399C18.1486 6.09128 17.9121 5.75454 17.5167 5.63712C17.2702 5.56391 16.7141 5.56273 16.3266 5.63457ZM16.2425 6.24602C13.9498 6.72772 10.0978 8.78918 7.8174 10.7548C7.02721 11.4359 6.43503 12.1298 6.30697 12.5246C6.21689 12.8025 6.32561 12.8739 6.83842 12.8739C8.07693 12.8739 10.6003 11.8559 13.0875 10.3527C15.2592 9.04023 17.0271 7.536 17.4285 6.6591C17.6108 6.26096 17.518 6.16492 16.9544 6.16845C16.7601 6.16967 16.4398 6.20455 16.2425 6.24602ZM19.5245 6.7606C19.1365 7.90012 17.7164 9.4971 15.8558 10.886C13.3269 12.7739 10.226 14.2261 7.7542 14.6803C7.17889 14.786 6.18229 14.8257 5.77069 14.7593C5.60658 14.7328 5.46393 14.7196 5.45361 14.7298C5.42242 14.7611 6.18609 16.0621 6.3169 16.2006C6.48607 16.3797 6.78769 16.5177 7.15166 16.5826C7.45736 16.6371 8.06807 16.6607 8.06807 16.6181C8.06807 16.6059 7.97877 16.4448 7.86962 16.26C7.76052 16.0752 7.67903 15.9042 7.6886 15.88C7.69818 15.8558 7.80418 15.7801 7.92416 15.7118C8.08325 15.6211 8.15183 15.5999 8.17753 15.6333C8.19691 15.6585 8.32504 15.8777 8.46228 16.1205C8.59952 16.3632 8.73275 16.5618 8.75833 16.5618C9.00005 16.5618 10.6726 16.1514 10.7698 16.0682C10.7776 16.0615 10.6752 15.8665 10.5423 15.6348C10.3602 15.3174 10.3131 15.2058 10.3515 15.1823C10.3795 15.1651 10.4921 15.098 10.6017 15.0332L10.801 14.9153L11.0724 15.3873C11.3248 15.8262 11.3507 15.8576 11.442 15.8348C11.6001 15.7954 12.4493 15.4382 12.8636 15.2369L13.2453 15.0514L12.9925 14.6203C12.8534 14.3832 12.7523 14.1777 12.7677 14.1636C12.7831 14.1496 12.8958 14.0822 13.0183 14.0139L13.2409 13.8898L13.4066 14.1763C13.4977 14.3339 13.6158 14.5384 13.669 14.6308L13.7657 14.7987L14.1046 14.6171C14.6037 14.3496 15.5218 13.8001 15.5221 13.7688C15.5222 13.7538 15.4069 13.5441 15.2658 13.3028C15.1246 13.0615 15.0143 12.8603 15.0206 12.8558C15.1457 12.7651 15.4921 12.6002 15.5205 12.6178C15.5415 12.6308 15.6584 12.8173 15.7801 13.0323C15.9018 13.2473 16.0184 13.4232 16.0392 13.4232C16.1029 13.4232 17.1608 12.6575 17.5702 12.3151L17.676 12.2266L17.4064 11.7571C17.2581 11.4988 17.1443 11.2755 17.1535 11.2606C17.1704 11.2331 17.5869 10.9907 17.6171 10.9907C17.6263 10.9907 17.7421 11.1761 17.8745 11.4027C18.0069 11.6293 18.129 11.8146 18.1458 11.8146C18.1858 11.8146 19.2241 10.7536 19.4348 10.4972L19.5987 10.298L19.3268 9.83027C19.1772 9.57302 19.0545 9.34456 19.0541 9.32259C19.0533 9.28277 19.518 9.00849 19.5415 9.03486C19.5483 9.04247 19.6466 9.21274 19.7601 9.41322L19.9664 9.77774L20.0394 9.65764C20.3783 9.1003 20.5188 8.66921 20.498 8.25016C20.4832 7.95053 20.4827 7.9494 20.0757 7.24399C19.8517 6.85558 19.6574 6.52492 19.6441 6.50915C19.6308 6.49342 19.5769 6.60657 19.5245 6.7606ZM1.55538 10.8909V11.2654H1.18266H0.80995V11.5596V11.8539H1.18266H1.55538V12.2283V12.6028L1.83982 12.5912L2.12426 12.5797L2.13552 12.2182L2.14678 11.8568L2.50823 11.8455L2.86969 11.8343V11.5596V11.285L2.50823 11.2737L2.14678 11.2625L2.13552 10.901L2.12426 10.5396L1.83982 10.528L1.55538 10.5165V10.8909Z" fill="#9E86FF"/>
</svg>
