<svg width="23" height="20" viewBox="0 0 23 20" fill="none" xmlns="http://www.w3.org/2000/svg">
<path fill-rule="evenodd" clip-rule="evenodd" d="M3.31607 0.982979C2.75097 1.07208 2.25793 1.29101 1.9683 1.58136C1.76723 1.78297 0.192194 4.46133 0.0684597 4.81215C-0.0325477 5.0984 -0.0201472 5.68514 0.0948389 6.06059C0.508067 7.40989 1.95865 9.10587 4.06664 10.7044C4.56681 11.0836 5.54541 11.7583 5.59537 11.7583C5.63298 11.7583 5.90727 11.3273 5.90727 11.2682C5.90727 11.2474 5.76014 11.1333 5.58035 11.0147C5.30281 10.8315 4.11967 9.95564 3.80086 9.69726L3.70103 9.61636L3.97492 9.14289C4.12558 8.88248 4.25806 8.64628 4.26929 8.61801C4.28056 8.58978 4.17387 8.50032 4.03219 8.41924C3.73111 8.24699 3.77593 8.21709 3.44075 8.81385C3.27269 9.11317 3.21912 9.17635 3.16014 9.14478C3.06667 9.09473 2.01583 8.01508 1.78743 7.73442L1.61369 7.52091L1.91171 7.00776C2.07558 6.72552 2.20946 6.47665 2.20914 6.45469C2.20887 6.43273 2.09122 6.35035 1.94778 6.27157L1.68692 6.12831L1.46353 6.53004C1.3407 6.751 1.22856 6.93214 1.21435 6.93259C1.1629 6.93412 0.7724 6.13774 0.698178 5.8799C0.647313 5.70323 0.627924 5.50879 0.639693 5.2937C0.656828 4.9803 0.669138 4.95131 1.10658 4.19416C1.35369 3.76645 1.56887 3.41645 1.58479 3.41631C1.60066 3.41622 1.62758 3.47191 1.64454 3.54013C1.70541 3.78467 2.02038 4.39834 2.29355 4.80462C3.07284 5.96359 4.47608 7.31006 6.14559 8.50082C6.69689 8.89402 7.88905 9.65731 7.91196 9.63174C7.91949 9.62326 7.99276 9.50647 8.07474 9.37223C8.21953 9.13518 8.22134 9.1263 8.13652 9.06691C8.08849 9.03327 7.65349 8.74513 7.16987 8.42659C5.87819 7.57583 4.95014 6.83167 4.05446 5.92846C2.68207 4.54448 1.95315 3.20465 2.15891 2.44425C2.40638 1.52973 3.96387 1.31617 6.23181 1.88587C8.73458 2.51459 11.641 3.99034 14.229 5.94664C14.2575 5.96815 14.3535 5.88351 14.4705 5.73362C14.5774 5.59685 14.6576 5.47943 14.6487 5.47271C11.6834 3.2143 8.18301 1.5415 5.4338 1.06911C4.81991 0.963589 3.72213 0.918947 3.31607 0.982979ZM4.02195 2.42414C3.53144 2.5283 3.24798 2.83403 3.24861 3.25831C3.24929 3.72375 3.57851 4.27776 4.29945 5.02679C5.28779 6.05364 6.83271 7.21487 8.63235 8.28365C9.22695 8.63677 9.26401 8.65228 9.32353 8.57292C9.44952 8.40499 9.56618 8.13922 9.52961 8.10337C9.509 8.08317 9.19791 7.89013 8.83829 7.67436C6.16809 6.07236 4.00396 4.17238 3.89114 3.33113C3.86692 3.15067 3.87076 3.14404 4.0413 3.07243C4.35992 2.93869 5.20879 3.05611 6.20038 3.37113C7.86186 3.89889 10.174 5.04384 12.0538 6.26959C12.4037 6.4978 12.6924 6.65797 12.7131 6.63538C12.8392 6.49717 13.0264 6.19429 13.006 6.16137C12.9273 6.03403 11.1434 4.94459 10.0619 4.36339C7.56546 3.02184 5.03446 2.20918 4.02195 2.42414ZM15.8727 2.85247V3.23576H15.4669H15.0611V3.54965V3.86354L15.4556 3.87657L15.8502 3.8896L15.8632 4.28416L15.8763 4.67872H16.1901H16.504V4.27289V3.86706H16.8873H17.2706V3.55141V3.23576H16.8873H16.504V2.85247V2.46919H16.1884H15.8727V2.85247ZM18.3528 5.15711C16.5354 5.37955 14.8433 5.92166 12.7388 6.95567C8.12515 9.22248 4.5545 12.6471 4.5545 14.8052C4.5545 14.9816 4.582 15.2173 4.61564 15.3291C4.7143 15.6569 6.30468 18.3794 6.52897 18.6045C6.74537 18.8216 7.13285 19.0197 7.5757 19.1396C7.97463 19.2476 9.21423 19.2464 9.85288 19.1373C13.5322 18.5088 18.3426 15.8794 21.1048 12.9869C21.9656 12.0855 22.5181 11.2858 22.8104 10.5182C23.0022 10.0145 23.0561 9.38066 22.9369 9.03074C22.8163 8.67677 21.2396 5.98591 21.0292 5.77497C20.6326 5.3773 20.0136 5.17826 19.0969 5.15359C18.7744 5.14489 18.4396 5.14651 18.3528 5.15711ZM18.0443 5.83354C14.2437 6.34967 8.75009 9.47608 6.28659 12.5248C5.54545 13.4421 5.18579 14.1892 5.18579 14.8117C5.18579 15.1519 5.25528 15.3371 5.45639 15.533C6.35698 16.4099 9.15313 16.0149 12.3798 14.5549C16.0538 12.8925 19.4829 10.1603 20.5454 8.0489C20.9737 7.19769 20.9881 6.6242 20.591 6.23C20.1675 5.8096 19.2605 5.66841 18.0443 5.83354ZM18.0597 6.62163C15.5587 6.96054 10.8013 9.44361 8.07172 11.8347C6.46935 13.2384 5.95336 14.2251 6.49749 14.8448C7.131 15.5663 9.49182 15.0265 12.6035 13.4486C15.9837 11.7345 19.0119 9.38661 19.6143 8.01282C19.7697 7.6584 19.7839 7.27732 19.6502 7.04712C19.4367 6.67939 18.8304 6.51719 18.0597 6.62163ZM17.9695 7.27385C16.0888 7.59062 12.5876 9.26442 10.1158 11.0284C9.17243 11.7017 8.61143 12.1655 7.97851 12.7953C7.35439 13.4164 7.03238 13.8368 6.9371 14.1548C6.88849 14.317 6.89259 14.3418 6.98296 14.4322C7.07156 14.5208 7.12698 14.531 7.49805 14.5278C8.03064 14.5231 8.50154 14.4239 9.41232 14.1245C12.558 13.0905 16.7846 10.4907 18.4922 8.53942C18.9068 8.06554 19.1314 7.67481 19.111 7.46283C19.0992 7.34117 19.0704 7.30762 18.939 7.2628C18.7367 7.19385 18.4234 7.19741 17.9695 7.27385ZM21.3734 7.68865C21.3724 7.80837 20.9576 8.64583 20.7391 8.96946C20.0234 10.0291 18.6876 11.3472 17.2501 12.412C14.4216 14.5072 10.8947 16.1268 8.31459 16.5154C7.42852 16.6488 6.53388 16.647 6.05225 16.5108C5.96522 16.4862 6.01568 16.5963 6.37705 17.2201C6.61234 17.6262 6.85751 18.0246 6.9219 18.1054C7.16558 18.4111 7.86966 18.6288 8.53184 18.6031L8.87649 18.5898L8.6545 18.2139C8.53238 18.0071 8.43246 17.8209 8.43246 17.8001C8.43246 17.7482 8.92726 17.4687 8.9604 17.5019C8.97501 17.5165 9.112 17.747 9.26482 18.014L9.54268 18.4996L9.7819 18.4893C10.0421 18.4781 10.7439 18.3211 11.386 18.1303C11.6092 18.0641 11.7988 18.0048 11.8074 17.9987C11.8159 17.9926 11.7005 17.7789 11.551 17.5238L11.2791 17.06L11.552 16.9062C11.7716 16.7824 11.8326 16.7645 11.8647 16.8144C11.8867 16.8484 12.0174 17.0741 12.1552 17.3159C12.293 17.5578 12.4335 17.7556 12.4675 17.7556C12.5454 17.7556 13.8424 17.2168 14.205 17.0337C14.4323 16.919 14.47 16.8838 14.4351 16.8185C14.4121 16.7756 14.2893 16.5603 14.1621 16.3401C14.0349 16.1199 13.9366 15.9356 13.9436 15.9306C13.9506 15.9256 14.0721 15.8563 14.2136 15.7767L14.4709 15.6318L14.5781 15.8031C14.637 15.8974 14.7614 16.1114 14.8545 16.2788C14.9476 16.4462 15.0491 16.5832 15.0801 16.5832C15.1747 16.5832 16.955 15.5491 16.955 15.4941C16.955 15.4775 16.8341 15.2542 16.6864 14.9978C16.3893 14.4818 16.3871 14.5123 16.7363 14.3139L16.946 14.1947L17.2227 14.6691C17.4053 14.9821 17.518 15.1329 17.5541 15.1123C17.9111 14.9089 19.311 13.8437 19.2842 13.7958C19.2747 13.7788 19.1408 13.545 18.9867 13.2763C18.8325 13.0075 18.713 12.7814 18.7212 12.7737C18.7294 12.7661 18.8466 12.695 18.9817 12.6157C19.2678 12.4479 19.2207 12.416 19.5582 13.0056C19.6765 13.2122 19.7853 13.3814 19.8 13.3815C19.8411 13.3817 21.1116 12.0743 21.2563 11.8829L21.3838 11.7144L21.0785 11.1887C20.7358 10.5987 20.7332 10.6437 21.1229 10.442C21.3315 10.334 21.318 10.323 21.591 10.8223C21.6825 10.9895 21.7678 11.1265 21.7806 11.1266C21.7934 11.1268 21.8673 11.0204 21.9449 10.8902C22.2861 10.3174 22.4482 9.7125 22.3628 9.33115C22.3176 9.12932 21.4754 7.60974 21.4088 7.60974C21.3896 7.60974 21.3738 7.64523 21.3734 7.68865ZM1.79433 12.3783L1.7813 12.7728L1.38674 12.7859L0.992182 12.7989V13.1128V13.4267H1.39801H1.80385V13.81V14.1933H2.09695H2.39005V13.81V13.4267H2.79589H3.20172V13.1128V12.7989L2.80716 12.7859L2.4126 12.7728L2.39957 12.3783L2.38653 11.9837H2.09695H1.80737L1.79433 12.3783Z" fill="white"/>
</svg>
