<svg width="21" height="19" viewBox="0 0 21 19" fill="none" xmlns="http://www.w3.org/2000/svg">
<path fill-rule="evenodd" clip-rule="evenodd" d="M7.30611 0.0697795C5.53931 0.257134 4.00765 1.49406 3.46108 3.17497C3.28101 3.72874 3.24609 3.97315 3.25124 4.64401C3.2572 5.41829 3.36238 5.88242 3.68395 6.55319C4.28378 7.80456 5.42294 8.71727 6.7825 9.03586C7.28269 9.15304 8.34938 9.14525 8.84468 9.02074C11.3792 8.38365 12.8644 5.81174 12.1404 3.3134C11.6268 1.54098 10.0775 0.26284 8.20597 0.0676505C7.75896 0.0210673 7.76598 0.0210247 7.30611 0.0697795ZM7.09887 1.96466C6.36904 2.15636 5.69248 2.70944 5.35792 3.38788C5.06782 3.97621 4.99496 4.61727 5.14553 5.25653C5.17099 5.3646 5.2705 5.61591 5.36669 5.81497C5.50265 6.0963 5.61306 6.24823 5.8625 6.49712C7.33119 7.96278 9.77281 7.34136 10.3832 5.34659C10.4581 5.10171 10.4805 4.92793 10.4792 4.60143C10.4761 3.81253 10.2401 3.24766 9.677 2.68129C9.3043 2.30641 8.9229 2.08436 8.44187 1.96206C8.1226 1.88091 7.41256 1.88227 7.09887 1.96466ZM16.562 4.63443C16.3452 4.71699 16.1439 4.89953 16.0456 5.10256C15.9618 5.27556 15.9556 5.35757 15.9556 6.29682V7.3053H14.9919C13.946 7.3053 13.7934 7.32855 13.5561 7.52416C13.1461 7.86208 13.125 8.52574 13.5125 8.88917C13.7564 9.11791 13.8636 9.13626 14.9536 9.13626H15.9556L15.9566 10.1476C15.9577 11.2843 15.9779 11.3819 16.2647 11.6337C16.7195 12.0331 17.393 11.8986 17.6695 11.3532L17.7866 11.1223V10.1314V9.14044L18.8476 9.12771L19.9085 9.11497L20.0931 8.98698C20.361 8.80111 20.5257 8.46592 20.4967 8.16555C20.4669 7.85667 20.3043 7.59259 20.0529 7.44483L19.8518 7.32659L18.8219 7.31322L17.7921 7.29985L17.7787 6.26999L17.7653 5.24014L17.6471 5.03903C17.4386 4.68429 16.9295 4.49446 16.562 4.63443ZM4.56584 10.9718C4.37878 10.9915 4.05304 11.0565 3.84196 11.1164C2.0781 11.6165 0.797065 13.0877 0.544519 14.9031C0.485459 15.328 0.485034 17.3667 0.544008 17.579C0.596808 17.7692 0.799151 18.0125 0.984207 18.1084C1.4342 18.3416 1.96109 18.1951 2.20525 17.7689C2.30638 17.5923 2.3091 17.5616 2.33516 16.3111C2.36471 14.8933 2.38575 14.7587 2.66159 14.2247C2.88318 13.7956 3.39951 13.2865 3.82016 13.0823C4.42242 12.7899 4.30622 12.7982 7.78016 12.7982C11.2541 12.7982 11.1379 12.7899 11.7402 13.0823C12.1608 13.2865 12.6772 13.7956 12.8987 14.2247C13.1781 14.7655 13.1978 14.8927 13.2188 16.2898C13.2376 17.539 13.2383 17.5471 13.3463 17.7464C13.5876 18.1916 14.1157 18.3471 14.5761 18.1084C14.7612 18.0125 14.9635 17.7692 15.0163 17.579C15.0753 17.3667 15.0749 15.328 15.0158 14.9031C14.7224 12.7937 13.0529 11.187 10.9277 10.9689C10.4143 10.9162 5.07071 10.9186 4.56584 10.9718Z" fill="white"/>
</svg>
