<svg width="21" height="19" viewBox="0 0 21 19" fill="none" xmlns="http://www.w3.org/2000/svg">
<path fill-rule="evenodd" clip-rule="evenodd" d="M7.05262 0.0568287C5.57433 0.327322 4.35344 1.23575 3.7144 2.54081C2.58553 4.84613 3.55342 7.57607 5.8875 8.66984C6.08716 8.76342 6.43654 8.88964 6.66392 8.95038C7.02962 9.04806 7.15856 9.06084 7.78023 9.06084C8.40641 9.06084 8.52943 9.04844 8.90808 8.94744C9.98643 8.65983 10.9433 7.9778 11.5541 7.06158C13.2709 4.48601 11.9614 0.993799 8.96695 0.162129C8.63541 0.0700764 8.45714 0.048863 7.90802 0.0362542C7.54488 0.0279477 7.15997 0.0371914 7.05262 0.0568287ZM16.6505 4.57347C16.4066 4.63131 16.1901 4.80865 16.0706 5.04843C15.9597 5.27104 15.9589 5.27973 15.9589 6.26198V7.25135L14.9259 7.26532L13.8929 7.27929L13.6918 7.39758C13.1785 7.69926 13.0879 8.39372 13.5071 8.81224C13.7611 9.06591 13.8886 9.08968 14.9948 9.08968H15.9589V10.0538C15.9589 11.16 15.9827 11.2875 16.2364 11.5415C16.6549 11.9607 17.3493 11.87 17.651 11.3568L17.7693 11.1556L17.7833 10.1227L17.7972 9.08968H18.7866C19.7689 9.08968 19.7776 9.08887 20.0002 8.97794C20.5622 8.69787 20.6703 8.00383 20.2219 7.55536C19.9505 7.28393 19.8185 7.25799 18.7089 7.25799H17.7906V6.33972C17.7906 5.77765 17.7712 5.34435 17.7405 5.22273C17.6718 4.94981 17.3725 4.65052 17.0996 4.58181C16.8797 4.52644 16.8511 4.52588 16.6505 4.57347ZM4.12338 11.0103C2.77189 11.2965 1.61755 12.1864 1.00674 13.4129C0.586052 14.2576 0.479985 14.9079 0.502945 16.5016C0.517002 17.4773 0.520069 17.5075 0.623878 17.6925C0.68245 17.7968 0.813479 17.9406 0.915074 18.0119L1.09978 18.1416H7.78023H14.4607L14.6454 18.0119C14.747 17.9406 14.878 17.7968 14.9366 17.6925C15.0404 17.5075 15.0435 17.4773 15.0575 16.5016C15.0655 15.9472 15.0506 15.2963 15.0242 15.0428C14.8221 13.1032 13.5312 11.5749 11.6566 11.0559L11.2519 10.9438L7.88672 10.9349C4.67659 10.9263 4.50317 10.9298 4.12338 11.0103Z" fill="#9E86FF"/>
</svg>
