<svg width="20" height="21" viewBox="0 0 20 21" fill="none" xmlns="http://www.w3.org/2000/svg">
<path fill-rule="evenodd" clip-rule="evenodd" d="M9.01689 0.286371C5.0571 0.692513 1.72742 3.3597 0.486872 7.11912C0.134614 8.18663 0.00495534 9.02463 0.00495534 10.2341C0.00495534 11.4422 0.13516 12.2804 0.489799 13.3556C1.01101 14.9357 1.83831 16.2417 3.0727 17.433C3.8812 18.2132 4.63188 18.7351 5.65904 19.2311C8.28213 20.4978 11.3138 20.5497 13.9917 19.3737C15.3202 18.7903 16.4703 17.9451 17.4819 16.8087C18.8326 15.2914 19.7725 13.1115 19.9086 11.1803C19.9226 10.9818 19.949 10.8194 19.9673 10.8194C19.9856 10.8194 20.0003 10.5341 20 10.1853C19.9996 9.76153 19.9868 9.57065 19.9616 9.60979C19.9346 9.65158 19.9236 9.60842 19.9231 9.45871C19.9223 9.18347 19.8246 8.52621 19.7047 7.99052C19.3966 6.61356 18.6128 5.01209 17.7187 3.9326C16.0838 1.95866 13.9193 0.733522 11.3775 0.343376C10.8882 0.268266 9.51648 0.235139 9.01689 0.286371ZM9.71665 2.60258C9.65086 2.63126 9.5349 2.74032 9.45897 2.84493C9.38308 2.94957 8.53603 4.036 7.57668 5.25923C6.61729 6.48246 5.80353 7.53596 5.76829 7.60034C5.67843 7.76441 5.6869 8.11714 5.78526 8.30774C5.82811 8.39077 5.92132 8.49823 5.99237 8.54654C6.11532 8.63007 6.15797 8.63433 6.8747 8.63433H7.62787L7.63954 10.673C7.65198 12.8386 7.64722 12.784 7.84146 12.9983C8.04268 13.2204 8.02239 13.218 9.79726 13.2314C10.6986 13.2382 11.5273 13.2327 11.6389 13.2191C11.86 13.1921 12.0463 13.0858 12.1738 12.9138C12.2536 12.8061 12.2558 12.7574 12.2749 10.7288L12.2944 8.65384L13.0624 8.63433C13.9496 8.61177 13.9745 8.60292 14.1576 8.24492C14.2721 8.02092 14.2913 7.82126 14.2143 7.65461C14.1885 7.59862 13.3596 6.45889 12.3725 5.12189C10.3904 2.43742 10.4907 2.54846 10.0509 2.54983C9.93285 2.55022 9.78243 2.57394 9.71665 2.60258ZM8.89152 5.80752L7.75172 7.26868H8.10862C8.54547 7.26868 8.75328 7.35241 8.91216 7.59242L9.01689 7.75064L9.02797 9.79224L9.03905 11.8338H9.97417H10.9093V9.84265C10.9093 8.13903 10.9179 7.8307 10.9693 7.70779C11.1059 7.38082 11.2685 7.29646 11.8137 7.26966L12.2303 7.24917L11.1659 5.8074C10.5804 5.01443 10.0856 4.3613 10.0664 4.35603C10.0471 4.35073 9.51843 5.00389 8.89152 5.80752ZM0 10.2341C0 10.5882 0.0059308 10.7331 0.0131492 10.556C0.0203676 10.3789 0.0203676 10.0892 0.0131492 9.91218C0.0059308 9.73515 0 9.87999 0 10.2341ZM7.75765 14.9065L7.7683 15.5991H9.97284H12.1774L12.188 14.9065L12.1987 14.214H9.97284H7.74699L7.75765 14.9065ZM8.33407 17.2769V17.9597H9.97284H11.6116V17.2769V16.5941H9.97284H8.33407V17.2769Z" fill="#9E86FF"/>
</svg>
