<svg width="20" height="21" viewBox="0 0 20 21" fill="none" xmlns="http://www.w3.org/2000/svg">
<path fill-rule="evenodd" clip-rule="evenodd" d="M9.06049 0.285323C6.73149 0.524471 4.63434 1.52806 2.9555 3.20689C0.577554 5.58476 -0.43165 8.78819 0.170276 12.0477C0.672168 14.7657 2.39585 17.2358 4.84849 18.7519C5.34511 19.0589 6.04665 19.4013 6.60095 19.6071C7.10394 19.794 8.04013 20.03 8.63149 20.119C9.209 20.206 10.6256 20.2177 11.186 20.1401C13.4425 19.8277 15.3881 18.8604 16.9985 17.2499C18.5793 15.6691 19.5395 13.7699 19.8609 11.5884C19.8945 11.3604 19.922 11.0938 19.922 10.9959C19.922 10.898 19.9396 10.8071 19.961 10.7939C19.9842 10.7795 20 10.5327 20 10.1848C20 9.80472 19.9864 9.6082 19.961 9.62388C19.9371 9.63862 19.922 9.5772 19.922 9.46542C19.922 9.36504 19.8945 9.09636 19.8609 8.86837C19.5395 6.68702 18.5796 4.7883 16.9985 3.2067C15.4162 1.62396 13.5102 0.660737 11.3225 0.338324C10.8412 0.267383 9.53368 0.236767 9.06049 0.285323ZM9.13849 1.64923C7.34078 1.85098 5.75547 2.52568 4.39999 3.66585C2.83047 4.98604 1.7722 6.89204 1.4492 8.98038C1.35338 9.59986 1.35338 10.8569 1.4492 11.4764C1.69724 13.08 2.37167 14.5657 3.41446 15.8054C5.19411 17.9211 8.0241 19.0741 10.7795 18.8059C13.0158 18.5883 15.1302 17.4866 16.5382 15.8054C17.6866 14.434 18.3841 12.7825 18.5545 11.0308C18.7756 8.75937 18.0424 6.43801 16.5395 4.65138C15.2273 3.09137 13.3097 2.02129 11.264 1.7075C10.7772 1.63281 9.57763 1.59994 9.13849 1.64923ZM9.93776 3.0108C9.66386 3.0941 9.56414 3.20806 7.86362 5.38107C6.91034 6.59923 6.09153 7.64911 6.04411 7.71417C5.86892 7.95437 5.88647 8.30892 6.08471 8.53469C6.29172 8.77048 6.35143 8.78538 7.08904 8.78538H7.75399L7.75571 10.5501C7.75664 11.5207 7.77216 12.3914 7.79022 12.4848C7.82653 12.6729 7.91783 12.8146 8.081 12.9365C8.18611 13.0149 8.23166 13.0169 9.97699 13.0169C11.7223 13.0169 11.7679 13.0149 11.873 12.9365C11.9322 12.8922 12.0168 12.8076 12.0611 12.7484C12.1391 12.644 12.1421 12.5833 12.161 10.7228L12.1805 8.80488L12.8825 8.78538C13.6196 8.7649 13.6654 8.75437 13.8452 8.56448C14.0429 8.35579 14.0899 8.05315 13.9626 7.80886C13.8766 7.64393 10.7158 3.35443 10.555 3.18458C10.4919 3.11789 10.3735 3.04329 10.2919 3.01883C10.1258 2.96907 10.0785 2.96802 9.93776 3.0108ZM9.04099 6.08279C8.49401 6.78269 8.04064 7.36995 8.0335 7.38785C8.02633 7.40575 8.13342 7.42038 8.2714 7.42038C8.57272 7.42038 8.74966 7.47416 8.89821 7.61093C9.12472 7.81947 9.11899 7.76276 9.11899 9.79743V11.6714H9.95749H10.796L10.7962 9.88713C10.7964 8.04754 10.8075 7.89715 10.9576 7.69412C11.0939 7.5098 11.2526 7.44635 11.6366 7.42272L11.9917 7.40088L11.0424 6.11388C10.5203 5.40603 10.0802 4.82313 10.0644 4.81857C10.0485 4.81401 9.58797 5.3829 9.04099 6.08279ZM0.00866022 10.2284C0.00866022 10.5609 0.0146662 10.6968 0.0219592 10.5306C0.0292912 10.3644 0.0292912 10.0923 0.0219592 9.92613C0.0146662 9.75991 0.00866022 9.8959 0.00866022 10.2284ZM7.90999 14.5769V15.2594H9.97699H12.044V14.5769V13.8944H9.97699H7.90999V14.5769ZM8.45599 16.7999V17.4824H9.97699H11.498V16.7999V16.1174H9.97699H8.45599V16.7999Z" fill="white"/>
</svg>
