<svg width="25" height="24" viewBox="0 0 25 24" fill="none" xmlns="http://www.w3.org/2000/svg">
<path fill-rule="evenodd" clip-rule="evenodd" d="M15.883 0.0433953C15.7542 0.0770631 15.533 0.163785 15.3913 0.236177C15.2497 0.308523 12.75 1.75558 9.83648 3.4519L4.53912 6.53603H3.44152C2.2388 6.53603 2.04579 6.56577 1.59715 6.82041C1.09475 7.10548 0.659835 7.72344 0.54853 8.31031C0.485174 8.64423 0.483208 21.7611 0.546423 22.1472C0.689757 23.0226 1.4334 23.7662 2.30881 23.9095C2.4793 23.9375 6.16623 23.9545 11.9731 23.9542C22.2826 23.9536 21.7369 23.9686 22.2569 23.6711C22.7296 23.4006 23.0789 22.9773 23.2836 22.4268C23.3587 22.2248 23.3703 21.9862 23.3874 20.3006L23.4065 18.402L23.6157 18.2911C23.9407 18.1186 24.27 17.7274 24.3783 17.385L24.4698 17.0953L24.5 17C24.5082 18.3392 24.4999 18.9098 24.5 15.1754C24.5001 11.441 24.5127 12.0452 24.4991 13.4102C24.4855 14.7751 24.5055 13.4617 24.4991 13.4102C24.4554 13.0555 23.9649 12.3466 23.5999 12.1754L23.407 12.0849L23.3882 10.1885C23.367 8.05689 23.3612 8.01667 22.9977 7.4888C22.6839 7.03323 22.1575 6.68157 21.6494 6.5881C21.5244 6.56511 21.396 6.51763 21.3641 6.48265C21.3322 6.44763 20.6022 5.1882 19.7418 3.68397C18.7934 2.02577 18.0968 0.858914 17.9724 0.72031C17.7091 0.426712 17.425 0.232665 17.088 0.116116C16.744 -0.00277498 16.1882 -0.0363491 15.883 0.0433953ZM16.0703 1.12423C15.9035 1.17822 6.91095 6.38671 6.80114 6.49295C6.77403 6.51922 7.16736 6.5358 7.8079 6.53547L8.85913 6.53486L13.05 4.09566C15.3551 2.75414 17.2576 1.64095 17.278 1.62194C17.3525 1.55236 16.9326 1.20032 16.6887 1.12788C16.4073 1.04434 16.319 1.04383 16.0703 1.12423ZM14.4999 4.50641C12.6595 5.57685 11.1336 6.47141 11.1091 6.49436C11.083 6.5188 11.5002 6.53603 12.1181 6.53603H13.1715L15.6745 5.08041C17.0511 4.27982 18.224 3.59509 18.2808 3.5588L18.3842 3.49282L18.1222 3.03604C17.978 2.78481 17.8571 2.57499 17.8532 2.56974C17.8494 2.5645 16.3404 3.43602 14.4999 4.50641ZM17.1313 5.48348C16.1954 6.03275 15.4175 6.49427 15.4027 6.50906C15.3879 6.52391 16.4328 6.53603 17.7248 6.53603C19.0626 6.53603 20.0739 6.51815 20.0739 6.49445C20.0739 6.40319 18.9392 4.47602 18.888 4.48029C18.8578 4.48277 18.0673 4.93422 17.1313 5.48348ZM2.25566 7.70064C2.0234 7.80614 1.80726 8.01742 1.68996 8.25361C1.60394 8.42677 1.60113 8.64938 1.60113 15.2456V22.0588L1.70218 22.2461C1.82046 22.4653 2.00388 22.6454 2.23328 22.7676C2.39141 22.8518 2.72902 22.8553 11.8304 22.8671C22.2248 22.8806 21.5736 22.8982 21.9202 22.594C22.0087 22.5163 22.1247 22.3627 22.1779 22.2527C22.2705 22.0613 22.2747 21.9762 22.2747 20.2922V18.5317L20.4134 18.5121C18.6875 18.4939 18.5253 18.4851 18.1843 18.3916C17.608 18.2334 17.2042 17.9945 16.7454 17.54C16.4106 17.2084 16.3067 17.0675 16.1238 16.6971C15.839 16.1203 15.7491 15.6969 15.7808 15.0818C15.8522 13.6951 16.6965 12.5886 18.037 12.1251L18.4116 11.9956L20.3432 11.9785L22.2747 11.9614L22.2737 10.1969C22.2728 8.5841 22.2653 8.41614 22.1864 8.24256C22.0802 8.00875 21.7745 7.73997 21.5322 7.66739C21.397 7.62689 18.9387 7.61331 11.8974 7.61406C2.84323 7.61504 2.43603 7.61869 2.25566 7.70064ZM0.523525 15.2222C0.523525 18.9566 0.52905 20.4774 0.53584 18.6017C0.54263 16.7261 0.54263 13.6707 0.53584 11.812C0.52905 9.95324 0.523525 11.4879 0.523525 15.2222ZM18.7628 13.0778C18.1403 13.1462 17.4796 13.5825 17.1518 14.1418C16.4549 15.3309 17.0688 16.8989 18.3925 17.3109C18.6548 17.3926 18.8489 17.3996 20.8296 17.3996C23.1682 17.3996 23.1671 17.3998 23.3065 17.139C23.3633 17.0328 23.3751 16.7028 23.3751 15.2185C23.3751 13.4729 23.3726 13.4228 23.2771 13.2941C23.1022 13.0582 23.0181 13.0497 20.8934 13.0549C19.8117 13.0576 18.8529 13.0679 18.7628 13.0778ZM18.5514 14.2672C18.2923 14.4041 18.171 14.5255 18.0562 14.7628C17.9254 15.0329 17.9231 15.4448 18.051 15.6955C18.2464 16.0785 18.5313 16.2722 18.956 16.3107C19.1868 16.3316 19.2666 16.3162 19.4872 16.2083C20.3358 15.7931 20.3021 14.5965 19.4316 14.2318C19.1986 14.1342 18.7707 14.1514 18.5514 14.2672Z" fill="black"/>
</svg>
